<?xml version="1.0" encoding="iso-8859-1"?>
<!-- Generator: Adobe Illustrator 19.0.0, SVG Export Plug-In . SVG Version: 6.00 Build 0)  -->
<svg xmlns="http://www.w3.org/2000/svg" xmlns:xlink="http://www.w3.org/1999/xlink" version="1.1" id="Capa_1" x="0px" y="0px" viewBox="0 0 512 512" style="enable-background:new 0 0 512 512;" xml:space="preserve" width="512px" height="512px">
<g>
	<g>
		<path d="M75,0c-8.291,0-15,6.709-15,15v30c0,8.291,6.709,15,15,15s15-6.709,15-15V15C90,6.709,83.291,0,75,0z" fill="#e7eff4"/>
	</g>
</g>
<g>
	<g>
		<path d="M195,0c-8.291,0-15,6.709-15,15v30c0,8.291,6.709,15,15,15s15-6.709,15-15V15C210,6.709,203.291,0,195,0z" fill="#e7eff4"/>
	</g>
</g>
<g>
	<g>
		<path d="M317,0c-8.291,0-15,6.709-15,15v30c0,8.291,6.709,15,15,15c8.291,0,15-6.709,15-15V15C332,6.709,325.291,0,317,0z" fill="#e7eff4"/>
	</g>
</g>
<g>
	<g>
		<path d="M437,0c-8.291,0-15,6.709-15,15v30c0,8.291,6.709,15,15,15c8.291,0,15-6.709,15-15V15C452,6.709,445.291,0,437,0z" fill="#e7eff4"/>
	</g>
</g>
<g>
	<g>
		<path d="M482,32.763V45c0,24.814-20.186,45-45,45c-24.814,0-45-20.186-45-45V30h-30v15c0,24.814-20.186,45-45,45    c-24.814,0-45-20.186-45-45V30h-32v15c0,24.814-20.186,45-45,45c-24.814,0-45-20.186-45-45V30h-30v15c0,24.814-20.186,45-45,45    c-24.814,0-45-20.186-45-45V32.763C12.578,38.976,0,55.47,0,75v30v15h512v-15V75C512,55.47,499.422,38.976,482,32.763z" fill="#e7eff4"/>
	</g>
</g>
<g>
	<g>
		<rect x="241" y="242" width="32" height="30" fill="#e7eff4"/>
	</g>
</g>
<g>
	<g>
		<rect x="121" y="242" width="30" height="30" fill="#e7eff4"/>
	</g>
</g>
<g>
	<g>
		<rect x="121" y="362" width="30" height="30" fill="#e7eff4"/>
	</g>
</g>
<g>
	<g>
		<rect x="241" y="362" width="32" height="30" fill="#e7eff4"/>
	</g>
</g>
<g>
	<g>
		<path d="M0,150v317c0,24.814,20.186,45,45,45h316.268V377c0-8.291,6.709-15,15-15H512V150H0z M181,407c0,8.291-6.709,15-15,15h-60    c-8.291,0-15-6.709-15-15v-60c0-8.291,6.709-15,15-15h60c8.291,0,15,6.709,15,15V407z M181,287c0,8.291-6.709,15-15,15h-60    c-8.291,0-15-6.709-15-15v-60c0-8.291,6.709-15,15-15h60c8.291,0,15,6.709,15,15V287z M303,407c0,8.291-6.709,15-15,15h-62    c-8.291,0-15-6.709-15-15v-60c0-8.291,6.709-15,15-15h62c8.291,0,15,6.709,15,15V407z M303,287c0,8.291-6.709,15-15,15h-62    c-8.291,0-15-6.709-15-15v-60c0-8.291,6.709-15,15-15h62c8.291,0,15,6.709,15,15V287z M423,287c0,8.291-6.709,15-15,15h-60    c-8.291,0-15-6.709-15-15v-60c0-8.291,6.709-15,15-15h60c8.291,0,15,6.709,15,15V287z" fill="#e7eff4"/>
	</g>
</g>
<g>
	<g>
		<rect x="363" y="242" width="30" height="30" fill="#e7eff4"/>
	</g>
</g>
<g>
	<g>
		<polygon points="391.268,392 391.268,470.089 469.357,392   " fill="#e7eff4"/>
	</g>
</g>
<g>
	<g>
		<path d="M511.778,392l-120,120H467c24.814,0,45-20.186,45-45v-75H511.778z" fill="#e7eff4"/>
	</g>
</g>
<g>
</g>
<g>
</g>
<g>
</g>
<g>
</g>
<g>
</g>
<g>
</g>
<g>
</g>
<g>
</g>
<g>
</g>
<g>
</g>
<g>
</g>
<g>
</g>
<g>
</g>
<g>
</g>
<g>
</g>
</svg>
