<?xml version="1.0" encoding="iso-8859-1"?>
<!-- Generator: Adobe Illustrator 21.0.0, SVG Export Plug-In . SVG Version: 6.00 Build 0)  -->
<svg xmlns="http://www.w3.org/2000/svg" xmlns:xlink="http://www.w3.org/1999/xlink" version="1.1" id="Capa_1" x="0px" y="0px" viewBox="0 0 511.867 511.867" style="enable-background:new 0 0 511.867 511.867;" xml:space="preserve" width="512px" height="512px">
<g>
	<g>
		<g>
			<rect x="247.256" y="451.122" width="34.712" height="17.356" fill="#e7eff4"/>
			<rect x="334.035" y="451.122" width="34.712" height="17.356" fill="#e7eff4"/>
			<path d="M490.239,320.952H212.544c-9.585,0-17.356,7.771-17.356,17.356v156.203c0,9.585,7.771,17.356,17.356,17.356h277.695     c9.585,0,17.356-7.771,17.356-17.356V338.308C507.595,328.723,499.824,320.952,490.239,320.952z M247.256,355.664h199.593     c4.793,0,8.678,3.885,8.678,8.678c0,4.793-3.885,8.678-8.678,8.678H247.256c-4.793,0-8.678-3.885-8.678-8.678     C238.578,359.549,242.463,355.664,247.256,355.664z M247.256,390.376h121.492c4.793,0,8.678,3.885,8.678,8.678     c0,4.793-3.885,8.678-8.678,8.678H247.256c-4.793,0-8.678-3.885-8.678-8.678C238.578,394.261,242.463,390.376,247.256,390.376z      M299.323,468.478c0,9.585-7.771,17.356-17.356,17.356h-34.712c-9.585,0-17.356-7.771-17.356-17.356v-17.356     c0-9.585,7.771-17.356,17.356-17.356h34.712c9.585,0,17.356,7.771,17.356,17.356V468.478z M386.103,468.478     c0,9.585-7.771,17.356-17.356,17.356h-34.712c-9.585,0-17.356-7.771-17.356-17.356v-17.356c0-9.585,7.771-17.356,17.356-17.356     h34.712c9.585,0,17.356,7.771,17.356,17.356V468.478z M472.883,468.478c0,9.585-7.771,17.356-17.356,17.356h-34.712     c-9.585,0-17.356-7.771-17.356-17.356v-17.356c0-9.585,7.771-17.356,17.356-17.356h34.712c9.585,0,17.356,7.771,17.356,17.356     V468.478z" fill="#e7eff4"/>
			<rect x="420.815" y="451.122" width="34.712" height="17.356" fill="#e7eff4"/>
			<path d="M12.951,60.613h69.424c4.793,0,8.678-3.885,8.678-8.678v-8.678h65.831l-11.221,11.221     c-2.256,2.179-3.161,5.405-2.366,8.439c0.794,3.034,3.164,5.404,6.198,6.198c3.034,0.794,6.261-0.111,8.439-2.366l26.034-26.034     c0.078-0.078,0.104-0.182,0.174-0.26c0.726-0.74,1.314-1.604,1.736-2.551c0-0.069,0-0.156,0.052-0.234     c0.328-0.873,0.509-1.793,0.538-2.725c-0.001-0.29-0.018-0.58-0.052-0.868c-0.043-0.727-0.183-1.445-0.417-2.135     c-0.083-0.295-0.184-0.585-0.304-0.868c-0.414-0.967-1.002-1.85-1.736-2.603L157.925,2.436     c-3.405-3.289-8.818-3.242-12.165,0.106c-3.347,3.347-3.394,8.76-0.106,12.165l11.229,11.195H91.052v-8.678     c0-4.793-3.885-8.678-8.678-8.678H12.951c-4.793,0-8.678,3.885-8.678,8.678v34.712C4.273,56.728,8.158,60.613,12.951,60.613z" fill="#e7eff4"/>
			<path d="M12.951,234.172h26.034v65.831l-11.221-11.221c-3.405-3.289-8.818-3.242-12.165,0.106     c-3.347,3.347-3.394,8.76-0.106,12.165l26.034,26.034c0.078,0.078,0.182,0.104,0.26,0.174c0.74,0.726,1.604,1.314,2.551,1.736     c3.236,1.332,6.956,0.589,9.433-1.883l26.034-26.034c3.289-3.405,3.242-8.818-0.106-12.165c-3.347-3.347-8.76-3.394-12.165-0.106     L56.34,300.003v-65.831h26.034c4.793,0,8.678-3.885,8.678-8.678v-34.712c0-4.793-3.885-8.678-8.678-8.678H12.951     c-4.793,0-8.678,3.885-8.678,8.678v34.712C4.273,230.287,8.158,234.172,12.951,234.172z" fill="#e7eff4"/>
			<path d="M221.222,60.613h69.424c4.793,0,8.678-3.885,8.678-8.678v-8.678h65.831l-11.221,11.221     c-3.388,3.389-3.388,8.882,0,12.271c3.389,3.388,8.882,3.388,12.271,0l26.034-26.034c0.078-0.078,0.104-0.182,0.174-0.26     c0.726-0.74,1.314-1.604,1.736-2.551c0-0.069,0-0.156,0.052-0.234c0.328-0.873,0.509-1.793,0.538-2.725     c-0.001-0.29-0.018-0.58-0.052-0.868c-0.043-0.727-0.183-1.445-0.417-2.135c-0.083-0.295-0.184-0.585-0.304-0.868     c-0.414-0.967-1.002-1.85-1.736-2.603L366.196,2.436c-3.405-3.289-8.818-3.242-12.165,0.106     c-3.347,3.347-3.394,8.76-0.106,12.165l11.229,11.195h-65.831v-8.678c0-4.793-3.885-8.678-8.678-8.678h-69.424     c-4.793,0-8.678,3.885-8.678,8.678v34.712C212.544,56.728,216.429,60.613,221.222,60.613z" fill="#e7eff4"/>
			<path d="M168.642,379.06c-0.083-0.295-0.184-0.585-0.304-0.868c-0.414-0.967-1.002-1.85-1.736-2.603l-26.034-26.034     c-3.405-3.289-8.818-3.242-12.165,0.106c-3.347,3.347-3.394,8.76-0.106,12.165l11.229,11.195H91.052v-8.678     c0-4.793-3.885-8.678-8.678-8.678H12.951c-4.793,0-8.678,3.885-8.678,8.678v34.712c0,4.793,3.885,8.678,8.678,8.678h69.424     c4.793,0,8.678-3.885,8.678-8.678v-8.678h48.475l-11.221,11.221c-2.256,2.179-3.161,5.405-2.366,8.439     c0.794,3.034,3.164,5.404,6.198,6.198c3.034,0.794,6.261-0.111,8.439-2.366l26.034-26.034c0.078-0.078,0.104-0.182,0.174-0.26     c0.726-0.74,1.314-1.604,1.736-2.551c0-0.069,0-0.156,0.052-0.234c0.328-0.873,0.509-1.793,0.538-2.725     c-0.001-0.29-0.018-0.58-0.052-0.868C169.016,380.468,168.875,379.75,168.642,379.06z" fill="#e7eff4"/>
			<path d="M498.917,8.545h-69.424c-4.793,0-8.678,3.885-8.678,8.678v34.712c0,4.793,3.885,8.678,8.678,8.678h26.034v65.831     l-11.221-11.221c-3.405-3.289-8.818-3.242-12.165,0.106c-3.347,3.347-3.394,8.76-0.106,12.165l26.034,26.034     c0.078,0.078,0.182,0.104,0.26,0.174c0.74,0.726,1.604,1.314,2.551,1.736c3.236,1.332,6.956,0.589,9.433-1.883l26.034-26.034     c3.289-3.405,3.242-8.818-0.106-12.165c-3.347-3.347-8.76-3.394-12.165-0.106l-11.195,11.195V60.613h26.034     c4.793,0,8.678-3.885,8.678-8.678V17.223C507.595,12.431,503.709,8.545,498.917,8.545z" fill="#e7eff4"/>
			<path d="M498.917,182.105h-69.424c-4.793,0-8.678,3.885-8.678,8.678v8.678h-65.831l11.221-11.221     c3.289-3.405,3.242-8.818-0.106-12.165c-3.347-3.347-8.76-3.394-12.165-0.106L327.9,202.003     c-0.734,0.754-1.322,1.636-1.736,2.603c-0.12,0.282-0.221,0.572-0.304,0.868c-0.233,0.69-0.374,1.408-0.417,2.135     c-0.034,0.288-0.051,0.578-0.052,0.868c0.029,0.932,0.21,1.852,0.538,2.725c0,0.078,0,0.165,0.052,0.234     c0.422,0.947,1.009,1.811,1.736,2.551c0.069,0.078,0.096,0.182,0.174,0.26l26.034,26.034c3.405,3.289,8.818,3.242,12.165-0.106     c3.347-3.347,3.394-8.76,0.106-12.165l-11.212-11.195h65.831v8.678c0,4.793,3.885,8.678,8.678,8.678h69.424     c4.793,0,8.678-3.885,8.678-8.678v-34.712C507.595,185.99,503.709,182.105,498.917,182.105z" fill="#e7eff4"/>
			<path d="M157.933,188.24c3.289-3.405,3.242-8.818-0.106-12.165c-3.347-3.347-8.76-3.394-12.165-0.106l-26.034,26.034     c-0.734,0.754-1.322,1.636-1.736,2.603c-0.12,0.282-0.221,0.572-0.304,0.868c-0.233,0.69-0.374,1.408-0.417,2.135     c-0.034,0.288-0.051,0.578-0.052,0.868c0.029,0.932,0.21,1.852,0.538,2.725c0,0.078,0,0.165,0.052,0.234     c0.422,0.947,1.009,1.811,1.736,2.551c0.069,0.078,0.095,0.182,0.174,0.26l26.034,26.034c3.405,3.289,8.818,3.242,12.165-0.106     c3.347-3.347,3.394-8.76,0.106-12.165l-11.212-11.195h65.831v8.678c0,4.793,3.885,8.678,8.678,8.678h69.424     c4.793,0,8.678-3.885,8.678-8.678v-34.712c0-4.793-3.885-8.678-8.678-8.678h-69.424c-4.793,0-8.678,3.885-8.678,8.678v8.678     h-65.831L157.933,188.24z" fill="#e7eff4"/>
		</g>
	</g>
</g>
<g>
</g>
<g>
</g>
<g>
</g>
<g>
</g>
<g>
</g>
<g>
</g>
<g>
</g>
<g>
</g>
<g>
</g>
<g>
</g>
<g>
</g>
<g>
</g>
<g>
</g>
<g>
</g>
<g>
</g>
</svg>
